{
    "asset" : {
        "generator" : "Khronos glTF Blender I/O v1.8.19",
        "version" : "2.0"
    },
    "extensionsUsed" : [
        "KHR_materials_unlit"
    ],
    "scene" : 0,
    "scenes" : [
        {
            "name" : "Scene",
            "nodes" : [
                5
            ]
        }
    ],
    "nodes" : [
        {
            "mesh" : 0,
            "name" : "Nike_Mercurial_Superfly_7_Pro_MDS_AG_soccer_football_boots_mat_",
            "translation" : [
                -4.809372425079346,
                0,
                0
            ]
        },
        {
            "children" : [
                0
            ],
            "name" : "Nike_Mercurial_Superfly_7_Pro_MDS_AG_soccer_football_boots"
        },
        {
            "name" : "Nike_Mercurial_Superfly_7_Pro_MDS_AG_soccer_football_boots1"
        },
        {
            "children" : [
                1,
                2
            ],
            "name" : "RootNode"
        },
        {
            "children" : [
                3
            ],
            "name" : "a557fc7628b1498fbe035a8ce8aaa54d.fbx",
            "rotation" : [
                0.7071068286895752,
                0,
                0,
                0.7071068286895752
            ],
            "scale" : [
                0.009999999776482582,
                0.009999999776482582,
                0.009999999776482582
            ]
        },
        {
            "children" : [
                4
            ],
            "name" : "Sketchfab_model",
            "rotation" : [
                -0.7071068286895752,
                0,
                0,
                0.7071068286895752
            ]
        }
    ],
    "materials" : [
        {
            "doubleSided" : true,
            "extensions" : {
                "KHR_materials_unlit" : {}
            },
            "name" : "mat_0",
            "pbrMetallicRoughness" : {
                "baseColorTexture" : {
                    "index" : 0
                },
                "metallicFactor" : 0,
                "roughnessFactor" : 0.9
            }
        }
    ],
    "meshes" : [
        {
            "name" : "Nike_Mercurial_Superfly_7_Pro_MDS_AG_soccer_football_boots_mat_",
            "primitives" : [
                {
                    "attributes" : {
                        "POSITION" : 0,
                        "NORMAL" : 1,
                        "TEXCOORD_0" : 2
                    },
                    "indices" : 3,
                    "material" : 0
                }
            ]
        }
    ],
    "textures" : [
        {
            "sampler" : 0,
            "source" : 0
        }
    ],
    "images" : [
        {
            "bufferView" : 4,
            "mimeType" : "image/jpeg",
            "name" : "Image_0"
        }
    ],
    "accessors" : [
        {
            "bufferView" : 0,
            "componentType" : 5126,
            "count" : 29714,
            "max" : [
                8.947186470031738,
                11.689666748046875,
                11.446000099182129
            ],
            "min" : [
                1.1446514129638672,
                -0.03090381622314453,
                -11.446000099182129
            ],
            "type" : "VEC3"
        },
        {
            "bufferView" : 1,
            "componentType" : 5126,
            "count" : 29714,
            "type" : "VEC3"
        },
        {
            "bufferView" : 2,
            "componentType" : 5126,
            "count" : 29714,
            "type" : "VEC2"
        },
        {
            "bufferView" : 3,
            "componentType" : 5123,
            "count" : 103752,
            "type" : "SCALAR"
        }
    ],
    "bufferViews" : [
        {
            "buffer" : 0,
            "byteLength" : 356568,
            "byteOffset" : 0
        },
        {
            "buffer" : 0,
            "byteLength" : 356568,
            "byteOffset" : 356568
        },
        {
            "buffer" : 0,
            "byteLength" : 237712,
            "byteOffset" : 713136
        },
        {
            "buffer" : 0,
            "byteLength" : 207504,
            "byteOffset" : 950848
        },
        {
            "buffer" : 0,
            "byteLength" : 1318743,
            "byteOffset" : 1158352
        }
    ],
    "samplers" : [
        {
            "magFilter" : 9729,
            "minFilter" : 9987
        }
    ],
    "buffers" : [
        {
            "byteLength" : 2477096,
            "uri" : "data:application/octet-stream;base64,"
        }
    ]
}
