{"asset":{"version":"2.0","generator":"VECTARY"},"nodes":[{"translation":[0.10594789759642957,0.1053733858105559,0.5334811156858739],"scale":[1,1,1],"rotation":[-0.0353383991891435,0.13109012657818495,0.0046758633558580676,0.9907293841197713],"name":"Camera","camera":0},{"translation":[-0.08661863073084655,0.10659258044007641,0.00017582979204313175],"scale":[0.001,0.001,0.001],"rotation":[-0.7071067811865475,0,0,0.7071067811865476],"name":"3D Text 1 - F","mesh":0},{"translation":[-0.06941187897084655,0.10659258044007641,0.00017582979204313175],"scale":[0.001,0.001,0.001],"rotation":[-0.7071067811865475,0,0,0.7071067811865476],"name":"3D Text 1 - E","mesh":1},{"translation":[-0.05148512721084655,0.10659258044007641,0.00017582979204313175],"scale":[0.001,0.001,0.001],"rotation":[-0.7071067811865475,0,0,0.7071067811865476],"name":"3D Text 1 - R","mesh":2},{"translation":[-0.03000337545084655,0.10659258044007641,0.00017582979204313175],"scale":[0.001,0.001,0.001],"rotation":[-0.7071067811865475,0,0,0.7071067811865476],"name":"3D Text 1 - N","mesh":3},{"translation":[-0.005506623690846553,0.10659258044007641,0.00017582979204313175],"scale":[0.001,0.001,0.001],"rotation":[-0.7071067811865475,0,0,0.7071067811865476],"name":"3D Text 1 - A","mesh":4},{"translation":[0.016380128069153444,0.10659258044007641,0.00017582979204313175],"scale":[0.001,0.001,0.001],"rotation":[-0.7071067811865475,0,0,0.7071067811865476],"name":"3D Text 1 - N","mesh":5},{"translation":[0.04087687982915344,0.10659258044007641,0.00017582979204313175],"scale":[0.001,0.001,0.001],"rotation":[-0.7071067811865475,0,0,0.7071067811865476],"name":"3D Text 1 - D","mesh":6},{"translation":[0.06271863158915343,0.10659258044007641,0.00017582979204313175],"scale":[0.001,0.001,0.001],"rotation":[-0.7071067811865475,0,0,0.7071067811865476],"name":"3D Text 1 - A","mesh":7},{"translation":[-0.04862583604525329,0.05249837033417177,0.0001758297920431282],"scale":[0.001,0.001,0.001],"rotation":[-0.7071067811865475,0,0,0.7071067811865476],"name":"3D Text - R","mesh":8},{"translation":[-0.027144084285253292,0.05249837033417177,0.0001758297920431282],"scale":[0.001,0.001,0.001],"rotation":[-0.7071067811865475,0,0,0.7071067811865476],"name":"3D Text - E","mesh":9},{"translation":[-0.009217332525253297,0.05249837033417177,0.0001758297920431282],"scale":[0.001,0.001,0.001],"rotation":[-0.7071067811865475,0,0,0.7071067811865476],"name":"3D Text - Y","mesh":10},{"translation":[0.010104419234746701,0.05249837033417177,0.0001758297920431282],"scale":[0.001,0.001,0.001],"rotation":[-0.7071067811865475,0,0,0.7071067811865476],"name":"3D Text - E","mesh":11},{"translation":[0.028031170994746703,0.05249837033417177,0.0001758297920431282],"scale":[0.001,0.001,0.001],"rotation":[-0.7071067811865475,0,0,0.7071067811865476],"name":"3D Text - S","mesh":12},{"translation":[3.654854197066016e-17,0.3292,0.09330000000000006],"scale":[0.001,0.001,0.001],"rotation":[0.27059805007309845,-0.6532814824381883,0.2705980500730985,0.6532814824381883],"name":"Directional Light","extensions":{"KHR_lights_punctual":{"light":0}}}],"cameras":[{"name":"Camera","type":"perspective","extras":{"targetDistance":0.5279629681323381},"perspective":{"aspectRatio":1.4961928934010151,"yfov":0.6108652381980153,"zfar":50,"znear":0.001}}],"materials":[{"pbrMetallicRoughness":{"baseColorFactor":[0.49361620131107364,0.940600707035753,0.940600707035753,1],"metallicFactor":1,"roughnessFactor":1},"name":"3D text Material 1","emissiveFactor":[0,0,0],"extensions":{},"alphaMode":"OPAQUE","doubleSided":false},{"pbrMetallicRoughness":{"baseColorFactor":[0.49361620131107364,0.940600707035753,0.940600707035753,1],"metallicFactor":1,"roughnessFactor":1},"name":"3D text Material","emissiveFactor":[0,0,0],"extensions":{},"alphaMode":"OPAQUE","doubleSided":false}],"meshes":[{"primitives":[{"mode":4,"attributes":{"POSITION":1,"NORMAL":2,"TEXCOORD_0":3},"material":0,"indices":0}]},{"primitives":[{"mode":4,"attributes":{"POSITION":5,"NORMAL":6,"TEXCOORD_0":7},"material":0,"indices":4}]},{"primitives":[{"mode":4,"attributes":{"POSITION":9,"NORMAL":10,"TEXCOORD_0":11},"material":0,"indices":8}]},{"primitives":[{"mode":4,"attributes":{"POSITION":13,"NORMAL":14,"TEXCOORD_0":15},"material":0,"indices":12}]},{"primitives":[{"mode":4,"attributes":{"POSITION":17,"NORMAL":18,"TEXCOORD_0":19},"material":0,"indices":16}]},{"primitives":[{"mode":4,"attributes":{"POSITION":13,"NORMAL":14,"TEXCOORD_0":15},"material":0,"indices":12}]},{"primitives":[{"mode":4,"attributes":{"POSITION":21,"NORMAL":22,"TEXCOORD_0":23},"material":0,"indices":20}]},{"primitives":[{"mode":4,"attributes":{"POSITION":17,"NORMAL":18,"TEXCOORD_0":19},"material":0,"indices":16}]},{"primitives":[{"mode":4,"attributes":{"POSITION":25,"NORMAL":26,"TEXCOORD_0":27},"material":1,"indices":24}]},{"primitives":[{"mode":4,"attributes":{"POSITION":29,"NORMAL":30,"TEXCOORD_0":31},"material":1,"indices":28}]},{"primitives":[{"mode":4,"attributes":{"POSITION":33,"NORMAL":34,"TEXCOORD_0":35},"material":1,"indices":32}]},{"primitives":[{"mode":4,"attributes":{"POSITION":29,"NORMAL":30,"TEXCOORD_0":31},"material":1,"indices":28}]},{"primitives":[{"mode":4,"attributes":{"POSITION":37,"NORMAL":38,"TEXCOORD_0":39},"material":1,"indices":36}]}],"accessors":[{"bufferView":0,"byteOffset":0,"componentType":5125,"count":324,"type":"SCALAR"},{"bufferView":1,"byteOffset":0,"componentType":5126,"count":216,"max":[18.149999618530273,2.204364281713743e-15,36],"min":[2.5999999046325684,-15,-1],"type":"VEC3"},{"bufferView":2,"byteOffset":0,"componentType":5126,"count":216,"type":"VEC3"},{"bufferView":3,"byteOffset":0,"componentType":5126,"count":216,"type":"VEC2"},{"bufferView":4,"byteOffset":0,"componentType":5125,"count":348,"type":"SCALAR"},{"bufferView":5,"byteOffset":0,"componentType":5126,"count":230,"max":[18.149999618530273,2.204364281713743e-15,36],"min":[2.5999999046325684,-15,-1],"type":"VEC3"},{"bufferView":6,"byteOffset":0,"componentType":5126,"count":230,"type":"VEC3"},{"bufferView":7,"byteOffset":0,"componentType":5126,"count":230,"type":"VEC2"},{"bufferView":8,"byteOffset":0,"componentType":5125,"count":564,"type":"SCALAR"},{"bufferView":9,"byteOffset":0,"componentType":5126,"count":378,"max":[22.695953369140625,2.204364281713743e-15,36],"min":[2.5999999046325684,-15,-1],"type":"VEC3"},{"bufferView":10,"byteOffset":0,"componentType":5126,"count":378,"type":"VEC3"},{"bufferView":11,"byteOffset":0,"componentType":5126,"count":378,"type":"VEC2"},{"bufferView":12,"byteOffset":0,"componentType":5125,"count":336,"type":"SCALAR"},{"bufferView":13,"byteOffset":0,"componentType":5126,"count":226,"max":[24.149999618530273,2.204364281713743e-15,36],"min":[2.5999999046325684,-15,-1],"type":"VEC3"},{"bufferView":14,"byteOffset":0,"componentType":5126,"count":226,"type":"VEC3"},{"bufferView":15,"byteOffset":0,"componentType":5126,"count":226,"type":"VEC2"},{"bufferView":16,"byteOffset":0,"componentType":5125,"count":492,"type":"SCALAR"},{"bufferView":17,"byteOffset":0,"componentType":5126,"count":324,"max":[21.299999237060547,2.204364281713743e-15,36],"min":[2.5999999046325684,-15,-1],"type":"VEC3"},{"bufferView":18,"byteOffset":0,"componentType":5126,"count":324,"type":"VEC3"},{"bufferView":19,"byteOffset":0,"componentType":5126,"count":324,"type":"VEC2"},{"bufferView":20,"byteOffset":0,"componentType":5125,"count":420,"type":"SCALAR"},{"bufferView":21,"byteOffset":0,"componentType":5126,"count":278,"max":[21.299999237060547,2.204364281713743e-15,36],"min":[2.5999999046325684,-15,-1],"type":"VEC3"},{"bufferView":22,"byteOffset":0,"componentType":5126,"count":278,"type":"VEC3"},{"bufferView":23,"byteOffset":0,"componentType":5126,"count":278,"type":"VEC2"},{"bufferView":24,"byteOffset":0,"componentType":5125,"count":564,"type":"SCALAR"},{"bufferView":25,"byteOffset":0,"componentType":5126,"count":378,"max":[22.695953369140625,2.204364281713743e-15,36],"min":[2.5999999046325684,-15,-1],"type":"VEC3"},{"bufferView":26,"byteOffset":0,"componentType":5126,"count":378,"type":"VEC3"},{"bufferView":27,"byteOffset":0,"componentType":5126,"count":378,"type":"VEC2"},{"bufferView":28,"byteOffset":0,"componentType":5125,"count":348,"type":"SCALAR"},{"bufferView":29,"byteOffset":0,"componentType":5126,"count":230,"max":[18.149999618530273,2.204364281713743e-15,36],"min":[2.5999999046325684,-15,-1],"type":"VEC3"},{"bufferView":30,"byteOffset":0,"componentType":5126,"count":230,"type":"VEC3"},{"bufferView":31,"byteOffset":0,"componentType":5126,"count":230,"type":"VEC2"},{"bufferView":32,"byteOffset":0,"componentType":5125,"count":288,"type":"SCALAR"},{"bufferView":33,"byteOffset":0,"componentType":5126,"count":194,"max":[21.9189395904541,2.204364281713743e-15,36],"min":[-0.27888134121894836,-15,-1],"type":"VEC3"},{"bufferView":34,"byteOffset":0,"componentType":5126,"count":194,"type":"VEC3"},{"bufferView":35,"byteOffset":0,"componentType":5126,"count":194,"type":"VEC2"},{"bufferView":36,"byteOffset":0,"componentType":5125,"count":588,"type":"SCALAR"},{"bufferView":37,"byteOffset":0,"componentType":5126,"count":391,"max":[17.994665145874023,2.204364281713743e-15,36],"min":[1.6053351163864136,-15,-1],"type":"VEC3"},{"bufferView":38,"byteOffset":0,"componentType":5126,"count":391,"type":"VEC3"},{"bufferView":39,"byteOffset":0,"componentType":5126,"count":391,"type":"VEC2"}],"bufferViews":[{"buffer":0,"byteOffset":0,"byteLength":1296,"target":34963},{"buffer":0,"byteOffset":1296,"byteLength":2592,"target":34962},{"buffer":0,"byteOffset":3888,"byteLength":2592,"target":34962},{"buffer":0,"byteOffset":6480,"byteLength":1728,"target":34962},{"buffer":0,"byteOffset":8208,"byteLength":1392,"target":34963},{"buffer":0,"byteOffset":9600,"byteLength":2760,"target":34962},{"buffer":0,"byteOffset":12360,"byteLength":2760,"target":34962},{"buffer":0,"byteOffset":15120,"byteLength":1840,"target":34962},{"buffer":0,"byteOffset":16960,"byteLength":2256,"target":34963},{"buffer":0,"byteOffset":19216,"byteLength":4536,"target":34962},{"buffer":0,"byteOffset":23752,"byteLength":4536,"target":34962},{"buffer":0,"byteOffset":28288,"byteLength":3024,"target":34962},{"buffer":0,"byteOffset":31312,"byteLength":1344,"target":34963},{"buffer":0,"byteOffset":32656,"byteLength":2712,"target":34962},{"buffer":0,"byteOffset":35368,"byteLength":2712,"target":34962},{"buffer":0,"byteOffset":38080,"byteLength":1808,"target":34962},{"buffer":0,"byteOffset":39888,"byteLength":1968,"target":34963},{"buffer":0,"byteOffset":41856,"byteLength":3888,"target":34962},{"buffer":0,"byteOffset":45744,"byteLength":3888,"target":34962},{"buffer":0,"byteOffset":49632,"byteLength":2592,"target":34962},{"buffer":0,"byteOffset":52224,"byteLength":1680,"target":34963},{"buffer":0,"byteOffset":53904,"byteLength":3336,"target":34962},{"buffer":0,"byteOffset":57240,"byteLength":3336,"target":34962},{"buffer":0,"byteOffset":60576,"byteLength":2224,"target":34962},{"buffer":0,"byteOffset":62800,"byteLength":2256,"target":34963},{"buffer":0,"byteOffset":65056,"byteLength":4536,"target":34962},{"buffer":0,"byteOffset":69592,"byteLength":4536,"target":34962},{"buffer":0,"byteOffset":74128,"byteLength":3024,"target":34962},{"buffer":0,"byteOffset":77152,"byteLength":1392,"target":34963},{"buffer":0,"byteOffset":78544,"byteLength":2760,"target":34962},{"buffer":0,"byteOffset":81304,"byteLength":2760,"target":34962},{"buffer":0,"byteOffset":84064,"byteLength":1840,"target":34962},{"buffer":0,"byteOffset":85904,"byteLength":1152,"target":34963},{"buffer":0,"byteOffset":87056,"byteLength":2328,"target":34962},{"buffer":0,"byteOffset":89384,"byteLength":2328,"target":34962},{"buffer":0,"byteOffset":91712,"byteLength":1552,"target":34962},{"buffer":0,"byteOffset":93264,"byteLength":2352,"target":34963},{"buffer":0,"byteOffset":95616,"byteLength":4692,"target":34962},{"buffer":0,"byteOffset":100308,"byteLength":4692,"target":34962},{"buffer":0,"byteOffset":105000,"byteLength":3128,"target":34962}],"extensions":{"KHR_lights_punctual":{"lights":[{"name":"Directional Light","type":"directional","intensity":2.8,"color":[1,0.803921568627451,0.7411764705882353]}]}},"scene":0,"scenes":[{"nodes":[0,1,2,3,4,5,6,7,8,9,10,11,12,13,14],"name":"fertext"}],"extensionsUsed":["KHR_texture_transform","KHR_lights_punctual"],"extensionsRequired":["KHR_lights_punctual"],"buffers":[{"byteLength":108128,"uri":"fertext.bin"}]}