<svg width="80" height="81" viewBox="0 0 80 81" fill="none" xmlns="http://www.w3.org/2000/svg">
<path fill-rule="evenodd" clip-rule="evenodd" d="M40 80.9971C62.0914 80.9971 80 63.0885 80 40.9971C80 18.9057 62.0914 0.99707 40 0.99707C17.9086 0.99707 0 18.9057 0 40.9971C0 63.0885 17.9086 80.9971 40 80.9971ZM41.4759 43.4227L24.6166 55.4622C22.6589 56.8229 20 55.4326 20 53.0365V28.9576C20 26.5615 22.6589 25.1712 24.6166 26.532L41.4759 38.601C43.1121 39.7547 43.1121 42.2395 41.4759 43.4227ZM48.9135 55.4622C46.9559 56.8229 44.297 55.4326 44.297 53.0365V28.9576C44.297 26.5615 46.9559 25.1712 48.9135 26.5615L65.7728 38.601C67.4091 39.7547 67.4091 42.2395 65.7728 43.4227L48.9135 55.4622Z" fill="white"/>
</svg>
