<svg width="136" height="136" viewBox="0 0 136 136" fill="none" xmlns="http://www.w3.org/2000/svg">
<path d="M68 0C30.464 0 0 30.464 0 68C0 105.536 30.464 136 68 136C105.536 136 136 105.536 136 68C136 30.464 105.536 0 68 0ZM54.4 95.2C50.66 95.2 47.6 92.14 47.6 88.4V47.6C47.6 43.86 50.66 40.8 54.4 40.8C58.14 40.8 61.2 43.86 61.2 47.6V88.4C61.2 92.14 58.14 95.2 54.4 95.2ZM81.6 95.2C77.86 95.2 74.8 92.14 74.8 88.4V47.6C74.8 43.86 77.86 40.8 81.6 40.8C85.34 40.8 88.4 43.86 88.4 47.6V88.4C88.4 92.14 85.34 95.2 81.6 95.2Z" fill="white"/>
</svg>
