<svg width="136" height="136" viewBox="0 0 136 136" fill="none" xmlns="http://www.w3.org/2000/svg">
<path d="M68 0C30.464 0 0 30.464 0 68C0 105.536 30.464 136 68 136C105.536 136 136 105.536 136 68C136 30.464 105.536 0 68 0ZM54.4 44.2C54.4 41.412 57.596 39.78 59.84 41.48L91.596 65.28C93.432 66.64 93.432 69.36 91.596 70.72L59.84 94.52C57.596 96.22 54.4 94.588 54.4 91.8V44.2Z" fill="white"/>
<path d="M68 0C30.464 0 0 30.464 0 68C0 105.536 30.464 136 68 136C105.536 136 136 105.536 136 68C136 30.464 105.536 0 68 0ZM54.4 44.2C54.4 41.412 57.596 39.78 59.84 41.48L91.596 65.28C93.432 66.64 93.432 69.36 91.596 70.72L59.84 94.52C57.596 96.22 54.4 94.588 54.4 91.8V44.2Z" stroke="#324A56"/>
</svg>
