<svg width="80" height="80" viewBox="0 0 80 80" fill="none" xmlns="http://www.w3.org/2000/svg">
<path fill-rule="evenodd" clip-rule="evenodd" d="M40 -3.49691e-06C17.9086 -5.4282e-06 5.4282e-06 17.9086 3.49691e-06 40C1.56562e-06 62.0914 17.9086 80 40 80C62.0914 80 80 62.0914 80 40C80 17.9086 62.0914 -1.56562e-06 40 -3.49691e-06ZM38.5242 37.5744L55.3834 25.5349C57.3411 24.1742 60 25.5645 60 27.9605L60 52.0395C60 54.4355 57.3411 55.8258 55.3834 54.4651L38.5242 42.3961C36.8879 41.2424 36.8879 38.7576 38.5242 37.5744ZM31.0865 25.5349C33.0441 24.1742 35.703 25.5645 35.703 27.9605L35.703 52.0395C35.703 54.4355 33.0441 55.8258 31.0865 54.4355L14.2272 42.3961C12.5909 41.2424 12.5909 38.7576 14.2272 37.5744L31.0865 25.5349Z" fill="white"/>
</svg>
