{"asset":{"version":"2.0","generator":"VECTARY"},"nodes":[{"translation":[-0.31936541225971676,0.9284894339312914,1.1368683772161603e-16],"scale":[0.012880803111132964,0.012880803111132964,0.012880803111132964],"rotation":[-0.7071067811865474,0,0,0.7071067811865475],"name":"Tube","mesh":0},{"translation":[0,-0.33147516648057335,-2.842170943040401e-17],"scale":[1,1,1],"rotation":[-0.7071067811865475,0,0,0.7071067811865476],"name":"Sketchfab_model","children":[2]},{"translation":[0,0,0],"scale":[1,1,1],"rotation":[0,0,0,1],"name":"root","children":[3]},{"translation":[0,0,0],"scale":[1,1,1],"rotation":[0.7071067811865475,0,0,0.7071067811865476],"name":"GLTF_SceneRootNode","children":[4]},{"translation":[-0.3199999928474426,0,0],"scale":[9,9,9],"rotation":[0,0,0,1],"name":"Arena Gallery (1)_0","children":[5]},{"translation":[-0.000012392149983497802,0.03974403440952301,-0.0008219883893616498],"scale":[35.552101135253906,35.552101135253906,35.552101135253906],"rotation":[-8.146033536604565e-8,0,0,0.9999999999999967],"name":"new:__pCylinder1_2","children":[6]},{"translation":[0,0,0],"scale":[1,1,1],"rotation":[0,0,0,1],"name":"Object_1","mesh":1}],"materials":[{"pbrMetallicRoughness":{"baseColorFactor":[0,0,0,1],"metallicFactor":0,"roughnessFactor":0.2},"name":"City Terrace","emissiveFactor":[0,0,0],"extensions":{},"alphaMode":"OPAQUE","doubleSided":false},{"pbrMetallicRoughness":{"baseColorFactor":[1,1,1,1],"baseColorTexture":{"index":0,"extensions":{"KHR_texture_transform":{"offset":[0,0],"scale":[1,1],"rotation":0}},"texCoord":0},"metallicFactor":1,"roughnessFactor":0.14712122136896308},"name":"Middle","normalTexture":{"index":1,"scale":1,"extensions":{"KHR_texture_transform":{"offset":[0,0],"scale":[1,1],"rotation":0}},"texCoord":0},"emissiveTexture":{"index":2,"extensions":{"KHR_texture_transform":{"offset":[0,0],"scale":[1,1],"rotation":0}},"texCoord":0},"emissiveFactor":[1,1,1],"extensions":{},"alphaMode":"OPAQUE","doubleSided":false}],"meshes":[{"primitives":[{"mode":4,"attributes":{"POSITION":1,"NORMAL":2,"TEXCOORD_0":3},"material":0,"indices":0}]},{"primitives":[{"mode":4,"attributes":{"POSITION":5,"NORMAL":6,"TEXCOORD_0":7,"TEXCOORD_1":8},"material":1,"indices":4}]}],"accessors":[{"bufferView":0,"byteOffset":0,"componentType":5125,"count":13056,"type":"SCALAR"},{"bufferView":1,"byteOffset":0,"componentType":5126,"count":2470,"max":[61.29999923706055,61.29999923706055,4.5],"min":[-61.29999923706055,-61.29999923706055,0],"type":"VEC3"},{"bufferView":2,"byteOffset":0,"componentType":5126,"count":2470,"type":"VEC3"},{"bufferView":3,"byteOffset":0,"componentType":5126,"count":2470,"type":"VEC2"},{"bufferView":4,"byteOffset":0,"componentType":5125,"count":588,"type":"SCALAR"},{"bufferView":5,"byteOffset":0,"componentType":5126,"count":209,"max":[0.002962986472994089,-0.00008672639523865655,0.002962986472994089],"min":[-0.0029629874043166637,-0.0011737514287233353,-0.002962986472994089],"type":"VEC3"},{"bufferView":6,"byteOffset":0,"componentType":5126,"count":209,"type":"VEC3"},{"bufferView":7,"byteOffset":0,"componentType":5126,"count":209,"type":"VEC2"},{"bufferView":8,"byteOffset":0,"componentType":5126,"count":209,"type":"VEC2"}],"bufferViews":[{"buffer":0,"byteOffset":0,"byteLength":52224,"target":34963},{"buffer":0,"byteOffset":52224,"byteLength":29640,"target":34962},{"buffer":0,"byteOffset":81864,"byteLength":29640,"target":34962},{"buffer":0,"byteOffset":111504,"byteLength":19760,"target":34962},{"buffer":0,"byteOffset":131264,"byteLength":2352,"target":34963},{"buffer":0,"byteOffset":133616,"byteLength":2508,"target":34962},{"buffer":0,"byteOffset":136124,"byteLength":2508,"target":34962},{"buffer":0,"byteOffset":138632,"byteLength":1672,"target":34962},{"buffer":0,"byteOffset":140304,"byteLength":1672,"target":34962}],"textures":[{"sampler":0,"source":0},{"sampler":0,"source":1},{"sampler":0,"source":2}],"images":[{"uri":"Middle_baseColor.jpg","mimeType":"image/jpeg"},{"uri":"Middle_normal.jpg","mimeType":"image/jpeg"},{"uri":"Middle_emissive.jpg","mimeType":"image/jpeg"}],"samplers":[{"wrapS":10497,"wrapT":10497}],"scene":0,"scenes":[{"nodes":[0,1],"name":"Project Name"}],"extensionsUsed":["KHR_texture_transform"],"buffers":[{"byteLength":141976,"uri":"ProjectName.bin"}]}