{
  "accessors": [
    {
      "bufferView": 2,
      "componentType": 5126,
      "count": 2599,
      "max": [
        72.40363311767578,
        207.74928283691406,
        28.2127742767334
      ],
      "min": [
        -90.97997283935547,
        0.0,
        0.007426251657307148
      ],
      "type": "VEC3"
    },
    {
      "bufferView": 2,
      "byteOffset": 31188,
      "componentType": 5126,
      "count": 2599,
      "max": [
        0.9998972415924072,
        0.9997487664222717,
        1.0
      ],
      "min": [
        -0.9998973608016968,
        -0.9999900460243225,
        -0.9983611702919006
      ],
      "type": "VEC3"
    },
    {
      "bufferView": 1,
      "componentType": 5126,
      "count": 2599,
      "max": [
        0.9869554042816162,
        0.9898662567138672
      ],
      "min": [
        0.0076859560795128345,
        0.011908496730029583
      ],
      "type": "VEC2"
    },
    {
      "bufferView": 1,
      "byteOffset": 20792,
      "componentType": 5126,
      "count": 2599,
      "max": [
        0.9869554042816162,
        0.9898662567138672
      ],
      "min": [
        0.0076859560795128345,
        0.011908496730029583
      ],
      "type": "VEC2"
    },
    {
      "bufferView": 0,
      "componentType": 5125,
      "count": 2694,
      "type": "SCALAR"
    }
  ],
  "asset": {
    "extras": {
      "author": "Karpulya (https://sketchfab.com/Karpulya)",
      "license": "CC-BY-4.0 (http://creativecommons.org/licenses/by/4.0/)",
      "source": "https://sketchfab.com/3d-models/eden-arena-8f1caa3250424e8e8769a405f1194468",
      "title": "Eden Arena"
    },
    "generator": "Sketchfab-12.68.0",
    "version": "2.0"
  },
  "bufferViews": [
    {
      "buffer": 0,
      "byteLength": 10776,
      "name": "floatBufferViews",
      "target": 34963
    },
    {
      "buffer": 0,
      "byteLength": 41584,
      "byteOffset": 10776,
      "byteStride": 8,
      "name": "floatBufferViews",
      "target": 34962
    },
    {
      "buffer": 0,
      "byteLength": 62376,
      "byteOffset": 52360,
      "byteStride": 12,
      "name": "floatBufferViews",
      "target": 34962
    }
  ],
  "buffers": [
    {
      "byteLength": 114736,
      "uri": "scene.bin"
    }
  ],
  "extensionsRequired": [
    "KHR_materials_pbrSpecularGlossiness"
  ],
  "extensionsUsed": [
    "KHR_materials_pbrSpecularGlossiness"
  ],
  "images": [
    {
      "uri": "textures/material_diffuse.png"
    },
    {
      "uri": "textures/material_specularGlossiness.png"
    }
  ],
  "materials": [
    {
      "alphaMode": "BLEND",
      "doubleSided": true,
      "extensions": {
        "KHR_materials_pbrSpecularGlossiness": {
          "diffuseFactor": [
            1.0,
            1.0,
            1.0,
            1.0
          ],
          "diffuseTexture": {
            "index": 0
          },
          "glossinessFactor": 0.10702864035024488,
          "specularFactor": [
            1.0,
            1.0,
            1.0
          ],
          "specularGlossinessTexture": {
            "index": 1
          }
        }
      },
      "name": "material"
    }
  ],
  "meshes": [
    {
      "name": "S_S_0",
      "primitives": [
        {
          "attributes": {
            "NORMAL": 1,
            "POSITION": 0,
            "TEXCOORD_0": 2,
            "TEXCOORD_1": 3
          },
          "indices": 4,
          "material": 0,
          "mode": 4
        }
      ]
    }
  ],
  "nodes": [
    {
      "children": [
        1
      ],
      "matrix": [
        1.0,
        0.0,
        0.0,
        0.0,
        0.0,
        2.220446049250313e-16,
        -1.0,
        0.0,
        0.0,
        1.0,
        2.220446049250313e-16,
        0.0,
        0.0,
        0.0,
        0.0,
        1.0
      ],
      "name": "Sketchfab_model"
    },
    {
      "children": [
        2
      ],
      "matrix": [
        1.0,
        0.0,
        0.0,
        0.0,
        0.0,
        0.0,
        1.0,
        0.0,
        0.0,
        -1.0,
        0.0,
        0.0,
        0.0,
        0.0,
        0.0,
        1.0
      ],
      "name": "f7050977e7e94cb8be034876281a3e4b.fbx"
    },
    {
      "children": [
        3
      ],
      "name": "RootNode"
    },
    {
      "children": [
        4
      ],
      "matrix": [
        0.9599917755223413,
        0.0003732872353873696,
        -0.0039654543612943245,
        0.0,
        -0.004130667710856486,
        -3.7427323824532414e-05,
        -0.9999915872656386,
        0.0,
        -0.00038899218388191073,
        1.0000000429102704,
        -3.582082932788367e-05,
        0.0,
        0.0,
        0.0,
        0.0,
        1.0
      ],
      "name": "S"
    },
    {
      "mesh": 0,
      "name": "S_S_0"
    }
  ],
  "samplers": [
    {
      "magFilter": 9729,
      "minFilter": 9987,
      "wrapS": 10497,
      "wrapT": 10497
    }
  ],
  "scene": 0,
  "scenes": [
    {
      "name": "Sketchfab_Scene",
      "nodes": [
        0
      ]
    }
  ],
  "textures": [
    {
      "sampler": 0,
      "source": 0
    },
    {
      "sampler": 0,
      "source": 1
    }
  ]
}
