{
  "accessors": [
    {
      "bufferView": 2,
      "componentType": 5126,
      "count": 2641,
      "max": [
        56.34709930419922,
        24.84079933166504,
        71.96119689941406
      ],
      "min": [
        -56.34709930419922,
        -24.629600524902344,
        0.028300000354647636
      ],
      "type": "VEC3"
    },
    {
      "bufferView": 2,
      "byteOffset": 31692,
      "componentType": 5126,
      "count": 2641,
      "max": [
        1.0,
        1.0,
        0.9999372959136963
      ],
      "min": [
        -1.0,
        -1.0,
        -1.0
      ],
      "type": "VEC3"
    },
    {
      "bufferView": 3,
      "componentType": 5126,
      "count": 2641,
      "max": [
        1.0,
        1.0,
        1.0,
        1.0
      ],
      "min": [
        -1.0,
        -1.0,
        -1.0,
        -1.0
      ],
      "type": "VEC4"
    },
    {
      "bufferView": 1,
      "componentType": 5126,
      "count": 2641,
      "max": [
        2.69350004196167,
        0.998199999332428
      ],
      "min": [
        0.004100000020116568,
        0.0035000001080334187
      ],
      "type": "VEC2"
    },
    {
      "bufferView": 0,
      "componentType": 5125,
      "count": 6600,
      "type": "SCALAR"
    },
    {
      "bufferView": 2,
      "byteOffset": 63384,
      "componentType": 5126,
      "count": 3243,
      "max": [
        56.34709930419922,
        24.84079933166504,
        71.96119689941406
      ],
      "min": [
        -56.34709930419922,
        -24.84079933166504,
        0.028300000354647636
      ],
      "type": "VEC3"
    },
    {
      "bufferView": 2,
      "byteOffset": 102300,
      "componentType": 5126,
      "count": 3243,
      "max": [
        1.0,
        1.0,
        1.0
      ],
      "min": [
        -1.0,
        -1.0,
        -1.0
      ],
      "type": "VEC3"
    },
    {
      "bufferView": 3,
      "byteOffset": 42256,
      "componentType": 5126,
      "count": 3243,
      "max": [
        1.0,
        1.0,
        1.0,
        1.0
      ],
      "min": [
        -1.0,
        -1.0,
        -1.0,
        -1.0
      ],
      "type": "VEC4"
    },
    {
      "bufferView": 1,
      "byteOffset": 21128,
      "componentType": 5126,
      "count": 3243,
      "max": [
        2.700200080871582,
        0.998199999332428
      ],
      "min": [
        0.003000000026077032,
        0.0035000001080334187
      ],
      "type": "VEC2"
    },
    {
      "bufferView": 0,
      "byteOffset": 26400,
      "componentType": 5125,
      "count": 11832,
      "type": "SCALAR"
    }
  ],
  "asset": {
    "extras": {
      "author": "Marek Picheta (https://sketchfab.com/imarcos)",
      "license": "CC-BY-4.0 (http://creativecommons.org/licenses/by/4.0/)",
      "source": "https://sketchfab.com/3d-models/antique-desk-669e11c5b2324b9dbf1c8cef3a482741",
      "title": "Antique Desk"
    },
    "generator": "Sketchfab-12.68.0",
    "version": "2.0"
  },
  "bufferViews": [
    {
      "buffer": 0,
      "byteLength": 73728,
      "name": "floatBufferViews",
      "target": 34963
    },
    {
      "buffer": 0,
      "byteLength": 47072,
      "byteOffset": 73728,
      "byteStride": 8,
      "name": "floatBufferViews",
      "target": 34962
    },
    {
      "buffer": 0,
      "byteLength": 141216,
      "byteOffset": 120800,
      "byteStride": 12,
      "name": "floatBufferViews",
      "target": 34962
    },
    {
      "buffer": 0,
      "byteLength": 94144,
      "byteOffset": 262016,
      "byteStride": 16,
      "name": "floatBufferViews",
      "target": 34962
    }
  ],
  "buffers": [
    {
      "byteLength": 356160,
      "uri": "scene.bin"
    }
  ],
  "images": [
    {
      "uri": "textures/Antique_Desk_baseColor.jpeg"
    },
    {
      "uri": "textures/Antique_Desk_metallicRoughness.png"
    },
    {
      "uri": "textures/Antique_Desk_normal.jpeg"
    }
  ],
  "materials": [
    {
      "doubleSided": true,
      "name": "Antique_Desk",
      "normalTexture": {
        "index": 2
      },
      "occlusionTexture": {
        "index": 1
      },
      "pbrMetallicRoughness": {
        "baseColorTexture": {
          "index": 0
        },
        "metallicRoughnessTexture": {
          "index": 1
        }
      }
    }
  ],
  "meshes": [
    {
      "name": "Object_0",
      "primitives": [
        {
          "attributes": {
            "NORMAL": 1,
            "POSITION": 0,
            "TANGENT": 2,
            "TEXCOORD_0": 3
          },
          "indices": 4,
          "material": 0,
          "mode": 4
        }
      ]
    },
    {
      "name": "Object_1",
      "primitives": [
        {
          "attributes": {
            "NORMAL": 6,
            "POSITION": 5,
            "TANGENT": 7,
            "TEXCOORD_0": 8
          },
          "indices": 9,
          "material": 0,
          "mode": 4
        }
      ]
    }
  ],
  "nodes": [
    {
      "children": [
        1
      ],
      "matrix": [
        1.0,
        0.0,
        0.0,
        0.0,
        0.0,
        2.220446049250313e-16,
        -1.0,
        0.0,
        0.0,
        1.0,
        2.220446049250313e-16,
        0.0,
        0.0,
        0.0,
        0.0,
        1.0
      ],
      "name": "Sketchfab_model"
    },
    {
      "children": [
        2,
        3
      ],
      "name": "d65631267d29489992ae8f45ff48953a.obj.cleaner"
    },
    {
      "mesh": 0,
      "name": "Object_2"
    },
    {
      "mesh": 1,
      "name": "Object_3"
    }
  ],
  "samplers": [
    {
      "magFilter": 9729,
      "minFilter": 9987,
      "wrapS": 10497,
      "wrapT": 10497
    }
  ],
  "scene": 0,
  "scenes": [
    {
      "name": "Sketchfab_Scene",
      "nodes": [
        0
      ]
    }
  ],
  "textures": [
    {
      "sampler": 0,
      "source": 0
    },
    {
      "sampler": 0,
      "source": 1
    },
    {
      "sampler": 0,
      "source": 2
    }
  ]
}
